<svg width="19" height="19" viewBox="0 0 19 19" fill="none" xmlns="http://www.w3.org/2000/svg">
    <path opacity="0.4" d="M12.4452 1.58301H6.55514C6.25431 1.58301 6.00098 1.83634 6.00098 2.13717C6.00098 2.43801 6.25431 2.69134 6.55514 2.69134H9.13601L10.2443 4.16384C10.4898 4.48842 10.5214 4.53592 10.9806 4.53592H13.9256C14.2264 4.53592 14.5193 4.57551 14.8043 4.65467C14.836 4.79717 14.8518 4.93967 14.8518 5.09009V5.36717C14.8518 5.66801 15.1052 5.92134 15.406 5.92134C15.7068 5.92134 15.9602 5.66801 15.9602 5.36717V5.08217C15.9443 3.15051 14.3768 1.58301 12.4452 1.58301Z" fill="url(#paint0_linear_1913_1904)"/>
    <path d="M15.9438 5.17717C15.6034 4.93176 15.2155 4.74967 14.7959 4.64676C14.5188 4.56759 14.218 4.52801 13.9172 4.52801H10.9722C10.513 4.52801 10.4813 4.48051 10.2359 4.15592L9.12759 2.68342C8.61301 2.00259 8.20926 1.58301 6.91884 1.58301H5.08217C3.15051 1.58301 1.58301 3.15051 1.58301 5.08217V13.9172C1.58301 15.8488 3.15051 17.4163 5.08217 17.4163H13.9172C15.8488 17.4163 17.4163 15.8488 17.4163 13.9172V8.02717C17.4163 6.84759 16.8384 5.81051 15.9438 5.17717ZM11.3443 12.6663H7.65509C7.34634 12.6663 7.10092 12.4209 7.10092 12.1122C7.10092 11.8113 7.34634 11.558 7.65509 11.558H11.3363C11.6372 11.558 11.8905 11.8113 11.8905 12.1122C11.8905 12.4209 11.6451 12.6663 11.3443 12.6663Z" fill="url(#paint1_linear_1913_1904)"/>
    <defs>
    <linearGradient id="paint0_linear_1913_1904" x1="10.9806" y1="1.58301" x2="11.5524" y2="5.9589" gradientUnits="userSpaceOnUse">
    <stop stop-color="#70A8FF"/>
    <stop offset="1" stop-color="#6DB7FF"/>
    </linearGradient>
    <linearGradient id="paint1_linear_1913_1904" x1="9.49967" y1="1.58301" x2="13.9703" y2="16.485" gradientUnits="userSpaceOnUse">
    <stop stop-color="#70A8FF"/>
    <stop offset="1" stop-color="#6DB7FF"/>
    </linearGradient>
    </defs>
    </svg>  