<svg width="254" height="254" viewBox="0 0 154 154" fill="none" xmlns="http://www.w3.org/2000/svg">
<line x1="23.0596" y1="0.385742" x2="23.0596" y2="153.615" stroke="#F1F1F1" stroke-opacity="0.56" stroke-width="0.5"/>
<line x1="41.124" y1="0.385742" x2="41.124" y2="153.615" stroke="#F1F1F1" stroke-opacity="0.56" stroke-width="0.5"/>
<line x1="4.99609" y1="0.770508" x2="4.99608" y2="154" stroke="#F1F1F1" stroke-opacity="0.56" stroke-width="0.5"/>
<line x1="59.1875" y1="1.13338e-08" x2="59.1875" y2="153.229" stroke="#F1F1F1" stroke-opacity="0.56" stroke-width="0.5"/>
<line x1="77.252" y1="1.13338e-08" x2="77.2519" y2="153.229" stroke="#F1F1F1" stroke-opacity="0.56" stroke-width="0.5"/>
<line x1="95.3154" y1="1.13338e-08" x2="95.3154" y2="153.229" stroke="#F1F1F1" stroke-opacity="0.56" stroke-width="0.5"/>
<line x1="113.379" y1="1.13338e-08" x2="113.379" y2="153.229" stroke="#F1F1F1" stroke-opacity="0.56" stroke-width="0.5"/>
<line x1="131.442" y1="1.13338e-08" x2="131.442" y2="153.229" stroke="#F1F1F1" stroke-opacity="0.56" stroke-width="0.5"/>
<line x1="149.507" y1="1.13338e-08" x2="149.507" y2="153.229" stroke="#F1F1F1" stroke-opacity="0.56" stroke-width="0.5"/>
<line x1="153.614" y1="23.0674" x2="0.384857" y2="23.0674" stroke="#F1F1F1" stroke-opacity="0.56" stroke-width="0.5"/>
<line x1="153.614" y1="41.1318" x2="0.384857" y2="41.1318" stroke="#F1F1F1" stroke-opacity="0.56" stroke-width="0.5"/>
<line x1="153.229" y1="5.00391" x2="9.15499e-05" y2="5.0039" stroke="#F1F1F1" stroke-opacity="0.56" stroke-width="0.5"/>
<line x1="154" y1="59.1953" x2="0.770599" y2="59.1953" stroke="#F1F1F1" stroke-opacity="0.56" stroke-width="0.5"/>
<line x1="154" y1="77.2588" x2="0.770599" y2="77.2588" stroke="#F1F1F1" stroke-opacity="0.56" stroke-width="0.5"/>
<line x1="154" y1="95.3232" x2="0.770599" y2="95.3232" stroke="#F1F1F1" stroke-opacity="0.56" stroke-width="0.5"/>
<line x1="154" y1="113.386" x2="0.770599" y2="113.386" stroke="#F1F1F1" stroke-opacity="0.56" stroke-width="0.5"/>
<line x1="154" y1="131.45" x2="0.770599" y2="131.45" stroke="#F1F1F1" stroke-opacity="0.56" stroke-width="0.5"/>
<line x1="154" y1="149.514" x2="0.770599" y2="149.514" stroke="#F1F1F1" stroke-opacity="0.56" stroke-width="0.5"/>
<circle cx="74.5" cy="76.5" r="43.5" fill="#EDF1F1"/>
<g filter="url(#filter0_d_1797_1971)">
<rect x="23" y="47" width="103" height="60" rx="4" fill="white"/>
<rect x="23.25" y="47.25" width="102.5" height="59.5" rx="3.75" stroke="#EDF1F1" stroke-width="0.5"/>
</g>
<g filter="url(#filter1_d_1797_1971)">
<rect x="15" y="56" width="123" height="42" rx="4" fill="white"/>
<rect x="15.25" y="56.25" width="122.5" height="41.5" rx="3.75" stroke="#EDF1F1" stroke-width="0.5"/>
</g>
<rect x="19" y="60" width="33" height="34" rx="2" fill="#EDF1F1"/>
<path d="M36.0003 76.9997C37.8413 76.9997 39.3337 75.5073 39.3337 73.6663C39.3337 71.8254 37.8413 70.333 36.0003 70.333C34.1594 70.333 32.667 71.8254 32.667 73.6663C32.667 75.5073 34.1594 76.9997 36.0003 76.9997Z" fill="#CCCCCC"/>
<path opacity="0.4" d="M36.0005 78.667C32.6604 78.667 29.9404 80.907 29.9404 83.667C29.9404 83.8537 30.0871 84.0003 30.2738 84.0003H41.7271C41.9138 84.0003 42.0605 83.8537 42.0605 83.667C42.0605 80.907 39.3405 78.667 36.0005 78.667Z" fill="#CCCCCC"/>
<path d="M42.287 78.8262C41.687 78.2262 41.2137 78.4196 40.8071 78.8262L38.447 81.1863C38.3537 81.2796 38.267 81.4529 38.247 81.5796L38.1203 82.4796C38.0737 82.8062 38.3003 83.0329 38.627 82.9862L39.527 82.8596C39.6537 82.8396 39.8337 82.7529 39.9203 82.6596L42.2803 80.2996C42.6937 79.8996 42.887 79.4262 42.287 78.8262Z" fill="#CCCCCC"/>
<rect x="58" y="63" width="65" height="6" rx="2" fill="#EDF1F1"/>
<rect x="58" y="76" width="73" height="6" rx="2" fill="#EDF1F1"/>
<rect x="58" y="85" width="56" height="6" rx="2" fill="#EDF1F1"/>
<defs>
<filter id="filter0_d_1797_1971" x="21" y="46" width="107" height="64" filterUnits="userSpaceOnUse" color-interpolation-filters="sRGB">
<feFlood flood-opacity="0" result="BackgroundImageFix"/>
<feColorMatrix in="SourceAlpha" type="matrix" values="0 0 0 0 0 0 0 0 0 0 0 0 0 0 0 0 0 0 127 0" result="hardAlpha"/>
<feMorphology radius="2" operator="erode" in="SourceAlpha" result="effect1_dropShadow_1797_1971"/>
<feOffset dy="1"/>
<feGaussianBlur stdDeviation="2"/>
<feComposite in2="hardAlpha" operator="out"/>
<feColorMatrix type="matrix" values="0 0 0 0 0 0 0 0 0 0 0 0 0 0 0 0 0 0 0.25 0"/>
<feBlend mode="normal" in2="BackgroundImageFix" result="effect1_dropShadow_1797_1971"/>
<feBlend mode="normal" in="SourceGraphic" in2="effect1_dropShadow_1797_1971" result="shape"/>
</filter>
<filter id="filter1_d_1797_1971" x="13" y="55" width="127" height="46" filterUnits="userSpaceOnUse" color-interpolation-filters="sRGB">
<feFlood flood-opacity="0" result="BackgroundImageFix"/>
<feColorMatrix in="SourceAlpha" type="matrix" values="0 0 0 0 0 0 0 0 0 0 0 0 0 0 0 0 0 0 127 0" result="hardAlpha"/>
<feMorphology radius="2" operator="erode" in="SourceAlpha" result="effect1_dropShadow_1797_1971"/>
<feOffset dy="1"/>
<feGaussianBlur stdDeviation="2"/>
<feComposite in2="hardAlpha" operator="out"/>
<feColorMatrix type="matrix" values="0 0 0 0 0 0 0 0 0 0 0 0 0 0 0 0 0 0 0.25 0"/>
<feBlend mode="normal" in2="BackgroundImageFix" result="effect1_dropShadow_1797_1971"/>
<feBlend mode="normal" in="SourceGraphic" in2="effect1_dropShadow_1797_1971" result="shape"/>
</filter>
</defs>
</svg>
