<svg width="354" height="394" viewBox="0 0 154 194" fill="none" xmlns="http://www.w3.org/2000/svg">
<line x1="23.0596" y1="22.3857" x2="23.0596" y2="175.615" stroke="#F1F1F1" stroke-opacity="0.56" stroke-width="0.5"/>
<line x1="41.124" y1="22.3857" x2="41.124" y2="175.615" stroke="#F1F1F1" stroke-opacity="0.56" stroke-width="0.5"/>
<line x1="4.99609" y1="22.7705" x2="4.99608" y2="176" stroke="#F1F1F1" stroke-opacity="0.56" stroke-width="0.5"/>
<line x1="59.1875" y1="22" x2="59.1875" y2="175.229" stroke="#F1F1F1" stroke-opacity="0.56" stroke-width="0.5"/>
<line x1="77.252" y1="22" x2="77.2519" y2="175.229" stroke="#F1F1F1" stroke-opacity="0.56" stroke-width="0.5"/>
<line x1="95.3154" y1="22" x2="95.3154" y2="175.229" stroke="#F1F1F1" stroke-opacity="0.56" stroke-width="0.5"/>
<line x1="113.379" y1="22" x2="113.379" y2="175.229" stroke="#F1F1F1" stroke-opacity="0.56" stroke-width="0.5"/>
<line x1="131.442" y1="22" x2="131.442" y2="175.229" stroke="#F1F1F1" stroke-opacity="0.56" stroke-width="0.5"/>
<line x1="149.507" y1="22" x2="149.507" y2="175.229" stroke="#F1F1F1" stroke-opacity="0.56" stroke-width="0.5"/>
<line x1="153.614" y1="45.0674" x2="0.384857" y2="45.0674" stroke="#F1F1F1" stroke-opacity="0.56" stroke-width="0.5"/>
<line x1="153.614" y1="63.1318" x2="0.384857" y2="63.1318" stroke="#F1F1F1" stroke-opacity="0.56" stroke-width="0.5"/>
<line x1="153.229" y1="27.0039" x2="9.15499e-05" y2="27.0039" stroke="#F1F1F1" stroke-opacity="0.56" stroke-width="0.5"/>
<line x1="154" y1="81.1953" x2="0.770599" y2="81.1953" stroke="#F1F1F1" stroke-opacity="0.56" stroke-width="0.5"/>
<line x1="154" y1="99.2588" x2="0.770599" y2="99.2588" stroke="#F1F1F1" stroke-opacity="0.56" stroke-width="0.5"/>
<line x1="154" y1="117.323" x2="0.770599" y2="117.323" stroke="#F1F1F1" stroke-opacity="0.56" stroke-width="0.5"/>
<line x1="154" y1="135.386" x2="0.770599" y2="135.386" stroke="#F1F1F1" stroke-opacity="0.56" stroke-width="0.5"/>
<line x1="154" y1="153.45" x2="0.770599" y2="153.45" stroke="#F1F1F1" stroke-opacity="0.56" stroke-width="0.5"/>
<line x1="154" y1="171.514" x2="0.770599" y2="171.514" stroke="#F1F1F1" stroke-opacity="0.56" stroke-width="0.5"/>
<circle cx="74.5" cy="98.5" r="43.5" fill="#EDF1F1"/>
<g filter="url(#filter0_d_1915_2024)">
<rect x="52" y="1" width="45" height="60" rx="4" fill="white"/>
<rect x="52.25" y="1.25" width="44.5" height="59.5" rx="3.75" stroke="#EDF1F1" stroke-width="0.5"/>
</g>
<rect x="56" y="19" width="26" height="3" rx="1.5" fill="#EDF1F1"/>
<rect x="56" y="24" width="37" height="3" rx="1.5" fill="#EDF1F1"/>
<rect x="56" y="29" width="37" height="3" rx="1.5" fill="#EDF1F1"/>
<rect x="56" y="34" width="37" height="3" rx="1.5" fill="#EDF1F1"/>
<rect x="56" y="39" width="10" height="3" rx="1.5" fill="#EDF1F1"/>
<rect x="56" y="44" width="19" height="3" rx="1.5" fill="#EDF1F1"/>
<g filter="url(#filter1_d_1915_2024)">
<rect x="52" y="66" width="45" height="60" rx="4" fill="white"/>
<rect x="52.25" y="66.25" width="44.5" height="59.5" rx="3.75" stroke="#EDF1F1" stroke-width="0.5"/>
</g>
<rect x="56" y="74" width="37" height="3" rx="1.5" fill="#EDF1F1"/>
<rect x="56" y="79" width="23" height="3" rx="1.5" fill="#EDF1F1"/>
<rect x="56" y="84" width="23" height="3" rx="1.5" fill="#EDF1F1"/>
<rect x="56" y="89" width="23" height="3" rx="1.5" fill="#EDF1F1"/>
<rect x="56" y="94" width="37" height="3" rx="1.5" fill="#EDF1F1"/>
<rect x="56" y="99" width="29" height="3" rx="1.5" fill="#EDF1F1"/>
<rect x="56" y="104" width="12" height="3" rx="1.5" fill="#EDF1F1"/>
<rect x="56" y="109" width="12" height="3" rx="1.5" fill="#EDF1F1"/>
<g filter="url(#filter2_d_1915_2024)">
<rect x="52" y="131" width="45" height="60" rx="4" fill="white"/>
<rect x="52.25" y="131.25" width="44.5" height="59.5" rx="3.75" stroke="#EDF1F1" stroke-width="0.5"/>
</g>
<rect x="56" y="139" width="15" height="3" rx="1.5" fill="#EDF1F1"/>
<rect x="56" y="144" width="23" height="3" rx="1.5" fill="#EDF1F1"/>
<rect x="56" y="149" width="23" height="3" rx="1.5" fill="#EDF1F1"/>
<rect x="56" y="154" width="37" height="3" rx="1.5" fill="#EDF1F1"/>
<rect x="56" y="159" width="22" height="3" rx="1.5" fill="#EDF1F1"/>
<rect x="56" y="164" width="17" height="3" rx="1.5" fill="#EDF1F1"/>
<rect x="56" y="169" width="37" height="3" rx="1.5" fill="#EDF1F1"/>
<rect x="56" y="174" width="37" height="3" rx="1.5" fill="#EDF1F1"/>
<defs>
<filter id="filter0_d_1915_2024" x="50" y="0" width="49" height="64" filterUnits="userSpaceOnUse" color-interpolation-filters="sRGB">
<feFlood flood-opacity="0" result="BackgroundImageFix"/>
<feColorMatrix in="SourceAlpha" type="matrix" values="0 0 0 0 0 0 0 0 0 0 0 0 0 0 0 0 0 0 127 0" result="hardAlpha"/>
<feMorphology radius="2" operator="erode" in="SourceAlpha" result="effect1_dropShadow_1915_2024"/>
<feOffset dy="1"/>
<feGaussianBlur stdDeviation="2"/>
<feComposite in2="hardAlpha" operator="out"/>
<feColorMatrix type="matrix" values="0 0 0 0 0 0 0 0 0 0 0 0 0 0 0 0 0 0 0.25 0"/>
<feBlend mode="normal" in2="BackgroundImageFix" result="effect1_dropShadow_1915_2024"/>
<feBlend mode="normal" in="SourceGraphic" in2="effect1_dropShadow_1915_2024" result="shape"/>
</filter>
<filter id="filter1_d_1915_2024" x="50" y="65" width="49" height="64" filterUnits="userSpaceOnUse" color-interpolation-filters="sRGB">
<feFlood flood-opacity="0" result="BackgroundImageFix"/>
<feColorMatrix in="SourceAlpha" type="matrix" values="0 0 0 0 0 0 0 0 0 0 0 0 0 0 0 0 0 0 127 0" result="hardAlpha"/>
<feMorphology radius="2" operator="erode" in="SourceAlpha" result="effect1_dropShadow_1915_2024"/>
<feOffset dy="1"/>
<feGaussianBlur stdDeviation="2"/>
<feComposite in2="hardAlpha" operator="out"/>
<feColorMatrix type="matrix" values="0 0 0 0 0 0 0 0 0 0 0 0 0 0 0 0 0 0 0.25 0"/>
<feBlend mode="normal" in2="BackgroundImageFix" result="effect1_dropShadow_1915_2024"/>
<feBlend mode="normal" in="SourceGraphic" in2="effect1_dropShadow_1915_2024" result="shape"/>
</filter>
<filter id="filter2_d_1915_2024" x="50" y="130" width="49" height="64" filterUnits="userSpaceOnUse" color-interpolation-filters="sRGB">
<feFlood flood-opacity="0" result="BackgroundImageFix"/>
<feColorMatrix in="SourceAlpha" type="matrix" values="0 0 0 0 0 0 0 0 0 0 0 0 0 0 0 0 0 0 127 0" result="hardAlpha"/>
<feMorphology radius="2" operator="erode" in="SourceAlpha" result="effect1_dropShadow_1915_2024"/>
<feOffset dy="1"/>
<feGaussianBlur stdDeviation="2"/>
<feComposite in2="hardAlpha" operator="out"/>
<feColorMatrix type="matrix" values="0 0 0 0 0 0 0 0 0 0 0 0 0 0 0 0 0 0 0.25 0"/>
<feBlend mode="normal" in2="BackgroundImageFix" result="effect1_dropShadow_1915_2024"/>
<feBlend mode="normal" in="SourceGraphic" in2="effect1_dropShadow_1915_2024" result="shape"/>
</filter>
</defs>
</svg>
