<svg width="64" height="64" viewBox="0 0 27 27" fill="none" xmlns="http://www.w3.org/2000/svg">
<path d="M24 0H3C1.34315 0 0 1.34315 0 3V24C0 25.6569 1.34315 27 3 27H24C25.6569 27 27 25.6569 27 24V3C27 1.34315 25.6569 0 24 0Z" fill="url(#paint0_linear_0_1)"/>
<path fill-rule="evenodd" clip-rule="evenodd" d="M15.6163 10.0209H19.8489C19.8489 10.0209 19.9106 9.9615 19.5671 9.25808C19.2236 8.55466 18.7701 7.96293 18.2067 7.48289C17.6433 6.9981 16.9882 6.62975 16.2415 6.37785C15.4949 6.12595 14.6773 6 13.7886 6C12.5243 6 11.3792 6.28755 10.3531 6.86264C9.32699 7.43299 8.51163 8.27661 7.90698 9.39354C7.30233 10.5057 7 11.8745 7 13.5H10.9302C10.9302 12.654 11.0425 11.9291 11.2669 11.3255C11.4959 10.722 11.8304 10.2586 12.2701 9.93536C12.7145 9.61217 13.2572 9.45057 13.8985 9.45057C14.265 9.45057 14.5925 9.50523 14.8811 9.61454C15.1696 9.71911 15.6163 10.0209 15.6163 10.0209ZM11.2738 15.7458H7.22352C7.37125 16.4254 7.59219 17.0433 7.88637 17.5993C8.48185 18.7163 9.29035 19.5623 10.3118 20.1373C11.3379 20.7124 12.4968 21 13.7886 21C14.8192 21 15.724 20.8361 16.5027 20.5081C17.2814 20.1801 17.9341 19.7476 18.4609 19.2106C18.9922 18.6687 19.4023 18.0794 19.6908 17.4425C19.8431 17.1037 19.908 16.975 19.9421 16.8379C19.9726 16.7154 19.9784 16.5863 20 16.2947H16.2209L16.0491 16.3731C15.9209 16.6203 15.7537 16.8318 15.5476 17.0076C15.3414 17.1835 15.0987 17.3189 14.8192 17.4139C14.5398 17.5043 14.2238 17.5495 13.871 17.5495C13.2527 17.5495 12.7236 17.3997 12.2838 17.1003C11.9904 16.8973 11.5412 16.2947 11.5412 16.2947C11.4407 16.128 11.3515 15.945 11.2738 15.7458Z" fill="white"/>
<defs>
<linearGradient id="paint0_linear_0_1" x1="40.5" y1="13.5" x2="13.5" y2="-13.5" gradientUnits="userSpaceOnUse">
<stop stop-color="#6C90FF"/>
<stop offset="1" stop-color="#BECDF9"/>
</linearGradient>
</defs>
</svg>
