<svg width="19" height="19" viewBox="0 0 19 19" fill="none" xmlns="http://www.w3.org/2000/svg">
<path opacity="0.4" d="M11.8753 3.16699H7.12533C4.94033 3.16699 3.16699 4.94033 3.16699 7.12533V11.8753C3.16699 14.0603 4.94033 15.8337 7.12533 15.8337H11.8753C14.0603 15.8337 15.8337 14.0603 15.8337 11.8753V7.12533C15.8337 4.94033 14.0603 3.16699 11.8753 3.16699ZM13.6645 11.2895C13.6645 12.6037 12.6037 13.6645 11.2895 13.6645H7.71116C6.39699 13.6645 5.33616 12.6037 5.33616 11.2895V7.71116C5.33616 6.39699 6.39699 5.33616 7.71116 5.33616H11.2816C12.5957 5.33616 13.6566 6.39699 13.6566 7.71116V11.2895H13.6645Z" fill="#566882"/>
<path d="M7.17285 2.17676V3.16634H7.12535C6.72952 3.16634 6.34952 3.22176 5.98535 3.33259V2.17676C5.98535 1.85217 6.2466 1.58301 6.5791 1.58301C6.90368 1.58301 7.17285 1.85217 7.17285 2.17676Z" fill="#566882"/>
<path d="M10.0938 2.17676V3.16634H8.90625V2.17676C8.90625 1.85217 9.17542 1.58301 9.5 1.58301C9.82458 1.58301 10.0938 1.85217 10.0938 2.17676Z" fill="#566882"/>
<path d="M13.0234 2.17676V3.33259C12.6593 3.22176 12.2714 3.16634 11.8755 3.16634H11.8359V2.17676C11.8359 1.85217 12.1051 1.58301 12.4297 1.58301C12.7543 1.58301 13.0234 1.85217 13.0234 2.17676Z" fill="#566882"/>
<path d="M17.4166 6.57129C17.4166 6.90379 17.1553 7.16504 16.8228 7.16504H15.8332V7.12546C15.8332 6.72962 15.7778 6.34171 15.667 5.97754H16.8228C17.1553 5.97754 17.4166 6.24671 17.4166 6.57129Z" fill="#566882"/>
<path d="M17.4163 9.5C17.4163 9.82458 17.1551 10.0938 16.8226 10.0938H15.833V8.90625H16.8226C17.1551 8.90625 17.4163 9.1675 17.4163 9.5Z" fill="#566882"/>
<path d="M17.4166 12.4287C17.4166 12.7533 17.1553 13.0225 16.8228 13.0225H15.667C15.7778 12.6583 15.8332 12.2704 15.8332 11.8745V11.835H16.8228C17.1553 11.835 17.4166 12.0962 17.4166 12.4287Z" fill="#566882"/>
<path d="M13.0234 15.667V16.8228C13.0234 17.1474 12.7543 17.4166 12.4297 17.4166C12.1051 17.4166 11.8359 17.1474 11.8359 16.8228V15.8332H11.8755C12.2714 15.8332 12.6593 15.7778 13.0234 15.667Z" fill="#566882"/>
<path d="M10.1016 15.833V16.8226C10.1016 17.1472 9.8324 17.4163 9.50781 17.4163C9.17531 17.4163 8.91406 17.1472 8.91406 16.8226V15.833H10.1016Z" fill="#566882"/>
<path d="M7.17285 15.8332V16.8228C7.17285 17.1474 6.90368 17.4166 6.5791 17.4166C6.2466 17.4166 5.98535 17.1474 5.98535 16.8228V15.667C6.34952 15.7778 6.72952 15.8332 7.12535 15.8332H7.17285Z" fill="#566882"/>
<path d="M3.33259 5.97754C3.22176 6.34171 3.16634 6.72962 3.16634 7.12546V7.16504H2.17676C1.85217 7.16504 1.58301 6.90379 1.58301 6.57129C1.58301 6.24671 1.85217 5.97754 2.17676 5.97754H3.33259Z" fill="#566882"/>
<path d="M3.16634 8.90625V10.0938H2.17676C1.85217 10.0938 1.58301 9.82458 1.58301 9.5C1.58301 9.1675 1.85217 8.90625 2.17676 8.90625H3.16634Z" fill="#566882"/>
<path d="M3.33259 13.0225H2.17676C1.85217 13.0225 1.58301 12.7533 1.58301 12.4287C1.58301 12.0962 1.85217 11.835 2.17676 11.835H3.16634V11.8745C3.16634 12.2704 3.22176 12.6583 3.33259 13.0225Z" fill="#566882"/>
<path d="M13.6642 7.71094V11.2814C13.6642 12.5955 12.6034 13.6564 11.2892 13.6564H7.71094C6.39677 13.6564 5.33594 12.5955 5.33594 11.2814V7.71094C5.33594 6.39677 6.39677 5.33594 7.71094 5.33594H11.2813C12.5955 5.33594 13.6642 6.40469 13.6642 7.71094Z" fill="#566882"/>
</svg>
