<svg width="19" height="19" viewBox="0 0 24 24" fill="none" xmlns="http://www.w3.org/2000/svg">
<path opacity="0.4" d="M16.19 4H7.81C4.17 4 2 6.17 2 9.81V16.18C2 19.83 4.17 22 7.81 22H16.18C19.82 22 21.99 19.83 21.99 16.19V9.81C22 6.17 19.83 4 16.19 4Z" fill="#566882"/>
<path d="M21.3 12.2305H17.82C16.84 12.2305 15.97 12.7705 15.53 13.6505L14.69 15.3105C14.49 15.7105 14.09 15.9605 13.65 15.9605H10.37C10.06 15.9605 9.62 15.8905 9.33 15.3105L8.49 13.6605C8.05 12.7905 7.17 12.2405 6.2 12.2405H2.7C2.31 12.2405 2 12.5505 2 12.9405V16.2005C2 19.8305 4.18 22.0005 7.82 22.0005H16.2C19.63 22.0005 21.74 20.1205 22 16.7805V12.9305C22 12.5505 21.69 12.2305 21.3 12.2305Z" fill="#566882"/>
<path d="M14.5294 6.47C14.2394 6.18 13.7594 6.18 13.4694 6.47L12.7494 7.19V2C12.7494 1.59 12.4094 1.25 11.9994 1.25C11.5894 1.25 11.2494 1.59 11.2494 2V7.19L10.5294 6.47C10.2394 6.18 9.75945 6.18 9.46945 6.47C9.17945 6.76 9.17945 7.24 9.46945 7.53L11.4694 9.53C11.4794 9.54 11.4894 9.54 11.4894 9.55C11.5494 9.61 11.6294 9.66 11.7094 9.7C11.8094 9.73 11.8994 9.75 11.9994 9.75C12.0994 9.75 12.1894 9.73 12.2794 9.69C12.3694 9.65 12.4494 9.6 12.5294 9.53L14.5294 7.53C14.8194 7.24 14.8194 6.76 14.5294 6.47Z" fill="#566882"/>
</svg>