<svg width="19" height="19" viewBox="0 0 19 19" fill="none" xmlns="http://www.w3.org/2000/svg">
<path opacity="0.4" d="M7.12565 1.58301C5.05148 1.58301 3.36523 3.26926 3.36523 5.34342C3.36523 7.37801 4.95648 9.02467 7.03065 9.09592C7.09398 9.08801 7.15732 9.08801 7.20482 9.09592C7.22065 9.09592 7.22857 9.09592 7.2444 9.09592C7.25232 9.09592 7.25232 9.09592 7.26023 9.09592C9.2869 9.02467 10.8782 7.37801 10.8861 5.34342C10.8861 3.26926 9.19982 1.58301 7.12565 1.58301Z" fill="#566882"/>
<path d="M11.1458 11.202C8.93706 9.72953 5.33495 9.72953 3.11036 11.202C2.10495 11.8749 1.55078 12.7854 1.55078 13.7591C1.55078 14.7329 2.10495 15.6354 3.10245 16.3004C4.21078 17.0445 5.66745 17.4166 7.12411 17.4166C8.58081 17.4166 10.0375 17.0445 11.1458 16.3004C12.1433 15.6274 12.6975 14.7249 12.6975 13.7433C12.6896 12.7695 12.1433 11.867 11.1458 11.202Z" fill="#566882"/>
<path opacity="0.4" d="M15.8249 5.81132C15.9516 7.34715 14.8591 8.69299 13.347 8.87507C13.3391 8.87507 13.3391 8.87507 13.3312 8.87507H13.3074C13.2599 8.87507 13.2124 8.87507 13.1728 8.8909C12.4049 8.93049 11.7003 8.68507 11.1699 8.23382C11.9853 7.50549 12.4524 6.41299 12.3574 5.22549C12.302 4.58424 12.0803 3.9984 11.7478 3.49965C12.0487 3.34924 12.397 3.25424 12.7533 3.22257C14.3049 3.08799 15.6903 4.24382 15.8249 5.81132Z" fill="#566882"/>
<path d="M17.4095 13.1337C17.3462 13.9017 16.8553 14.5667 16.032 15.0179C15.2403 15.4533 14.2428 15.6592 13.2533 15.6354C13.8233 15.1208 14.1558 14.4796 14.2191 13.7987C14.2983 12.8171 13.8312 11.875 12.897 11.1229C12.3666 10.7033 11.7491 10.3708 11.0762 10.1254C12.8258 9.61874 15.0266 9.95915 16.3803 11.0517C17.1087 11.6375 17.4808 12.3737 17.4095 13.1337Z" fill="#566882"/>
</svg>  