<svg width="19" height="19" viewBox="0 0 19 19" fill="none" xmlns="http://www.w3.org/2000/svg">
<path opacity="0.4" d="M10.4811 1.58301C10.8532 1.58301 11.1619 1.88384 11.1619 2.26384V16.7434C11.1619 17.1155 10.8611 17.4243 10.4811 17.4243C5.8182 17.4243 2.56445 14.1705 2.56445 9.50759C2.56445 4.84467 5.82612 1.58301 10.4811 1.58301Z" fill="#F13A41"/>
<path d="M16.2608 9.13546L14.0125 6.87922C13.7829 6.64964 13.4029 6.64964 13.1733 6.87922C12.9437 7.1088 12.9437 7.4888 13.1733 7.71839L14.4083 8.95338H6.83203C6.50745 8.95338 6.23828 9.22254 6.23828 9.54713C6.23828 9.87171 6.50745 10.1409 6.83203 10.1409H14.4083L13.1733 11.3759C12.9437 11.6055 12.9437 11.9855 13.1733 12.215C13.292 12.3338 13.4425 12.3892 13.5929 12.3892C13.7433 12.3892 13.8937 12.3338 14.0125 12.215L16.2608 9.95879C16.4904 9.73713 16.4904 9.36504 16.2608 9.13546Z" fill="#F13A41"/>
</svg> 