<svg width="19" height="19" viewBox="0 0 19 19" fill="none" xmlns="http://www.w3.org/2000/svg">
<path d="M15.303 4.497L10.3392 1.82117C9.81672 1.53617 9.18339 1.53617 8.66089 1.82117L3.69716 4.497C3.33299 4.69492 3.11133 5.07492 3.11133 5.51034C3.11133 5.93784 3.33299 6.32576 3.69716 6.52367L8.66089 9.19948C8.92214 9.34198 9.21505 9.41323 9.50005 9.41323C9.78505 9.41323 10.078 9.34198 10.3392 9.19948L15.303 6.52367C15.6671 6.32576 15.8888 5.94576 15.8888 5.51034C15.8888 5.07492 15.6671 4.69492 15.303 4.497Z" fill="#566882"/>
<path opacity="0.4" d="M7.84509 10.1257L3.22176 7.81408C2.86551 7.63991 2.45384 7.65574 2.12134 7.86158C1.78092 8.07533 1.58301 8.43158 1.58301 8.82741V13.1895C1.58301 13.9416 2.00259 14.6224 2.67551 14.9628L7.29092 17.2745C7.44926 17.3537 7.62342 17.3932 7.79759 17.3932C8.00342 17.3932 8.20926 17.3378 8.39134 17.227C8.73176 17.0212 8.92967 16.657 8.92967 16.2612V11.8991C8.93759 11.1391 8.51801 10.4582 7.84509 10.1257Z" fill="#566882"/>
<path opacity="0.4" d="M16.8786 7.86087C16.5382 7.65504 16.1266 7.63129 15.7782 7.81337L11.1628 10.125C10.4899 10.4654 10.0703 11.1384 10.0703 11.8984V16.2604C10.0703 16.6563 10.2682 17.0204 10.6086 17.2263C10.7907 17.3371 10.9966 17.3925 11.2024 17.3925C11.3766 17.3925 11.5507 17.3529 11.7091 17.2738L16.3245 14.9621C16.9974 14.6217 17.417 13.9488 17.417 13.1888V8.82669C17.417 8.43086 17.2191 8.07461 16.8786 7.86087Z" fill="#566882"/>
</svg>
