<svg width="21" height="21" viewBox="0 0 19 19" fill="none" xmlns="http://www.w3.org/2000/svg">
<path d="M12.666 5.54134H15.041C15.251 5.54134 15.4523 5.62475 15.6008 5.77322C15.7493 5.92168 15.8327 6.12304 15.8327 6.33301V15.0413C15.8327 15.4613 15.6659 15.864 15.3689 16.1609C15.072 16.4579 14.6693 16.6247 14.2493 16.6247C13.8294 16.6247 13.4267 16.4579 13.1298 16.1609C12.8328 15.864 12.666 15.0413 12.666 15.0413V4.74967C12.666 4.53971 12.5826 4.33835 12.4341 4.18988C12.2857 4.04142 12.0843 3.95801 11.8743 3.95801H3.95768C3.74772 3.95801 3.54636 4.04142 3.39789 4.18988C3.24942 4.33835 3.16602 4.53971 3.16602 4.74967V14.2497C3.16602 14.8796 3.41624 15.4837 3.86164 15.9291C4.30704 16.3745 4.91113 16.6247 5.54102 16.6247H14.2493" fill="#B5BDC7"/>
<path d="M15.041 5.54134H12.666V15.0413C12.666 15.0413 12.8328 15.864 13.1298 16.1609C13.4267 16.4579 13.8294 16.6247 14.2493 16.6247C14.6693 16.6247 15.072 16.4579 15.3689 16.1609C15.6659 15.864 15.8327 15.4613 15.8327 15.0413V6.33301C15.8327 6.12304 15.7493 5.92168 15.6008 5.77322C15.4523 5.62475 15.251 5.54134 15.041 5.54134Z" fill="#B5BDC7"/>
<path d="M6.33398 6.33301H9.50065" stroke="#566882" stroke-width="1.25" stroke-linecap="round" stroke-linejoin="round"/>
<path d="M6.33398 9.5H9.50065" stroke="#566882" stroke-width="1.25" stroke-linecap="round" stroke-linejoin="round"/>
<path d="M6.33398 12.667H9.50065" stroke="#566882" stroke-width="1.25" stroke-linecap="round" stroke-linejoin="round"/>
</svg>   