<svg width="19" height="19" viewBox="0 0 19 19" fill="none" xmlns="http://www.w3.org/2000/svg">
<path d="M8.39134 3.28511V4.74967H7.21967C5.94508 4.74967 5.30385 5.39091 5.30385 6.66549V14.2497H3.28511C2.15302 14.2497 1.58301 13.6797 1.58301 12.5476V3.28511C1.58301 2.15302 2.15302 1.58301 3.28511 1.58301H6.68927C7.82135 1.58301 8.39134 2.15302 8.39134 3.28511Z" fill="#566882"/>
<path opacity="0.4" d="M13.7518 6.66582V15.5008C13.7518 16.7754 13.1184 17.4167 11.8439 17.4167H7.2205C5.94592 17.4167 5.30469 16.7754 5.30469 15.5008V6.66582C5.30469 5.39123 5.94592 4.75 7.2205 4.75H11.8439C13.1184 4.75 13.7518 5.39123 13.7518 6.66582Z" fill="#566882"/>
<path d="M17.4167 3.28511V12.5476C17.4167 13.6797 16.8467 14.2497 15.7146 14.2497H13.7513V6.66549C13.7513 5.39091 13.118 4.74967 11.8434 4.74967H10.6084V3.28511C10.6084 2.15302 11.1784 1.58301 12.3105 1.58301H15.7146C16.8467 1.58301 17.4167 2.15302 17.4167 3.28511Z" fill="#566882"/>
<path d="M11.0837 9.30176H7.91699C7.59241 9.30176 7.32324 9.03259 7.32324 8.70801C7.32324 8.38342 7.59241 8.11426 7.91699 8.11426H11.0837C11.4082 8.11426 11.6774 8.38342 11.6774 8.70801C11.6774 9.03259 11.4082 9.30176 11.0837 9.30176Z" fill="#566882"/>
<path d="M11.0837 11.6768H7.91699C7.59241 11.6768 7.32324 11.4076 7.32324 11.083C7.32324 10.7584 7.59241 10.4893 7.91699 10.4893H11.0837C11.4082 10.4893 11.6774 10.7584 11.6774 11.083C11.6774 11.4076 11.4082 11.6768 11.0837 11.6768Z" fill="#566882"/>
<path d="M10.0938 15.042V17.417H8.90625V15.042C8.90625 14.7174 9.17542 14.4482 9.5 14.4482C9.82458 14.4482 10.0938 14.7174 10.0938 15.042Z" fill="#566882"/>
</svg>
