<svg width="19" height="19" viewBox="0 0 19 19" fill="none" xmlns="http://www.w3.org/2000/svg">
<path opacity="0.4" d="M12.8177 1.58301H6.18357C3.3019 1.58301 1.58398 3.30092 1.58398 6.18259V12.8088C1.58398 15.6984 3.3019 17.4163 6.18357 17.4163H12.8098C15.6915 17.4163 17.4094 15.6984 17.4094 12.8168V6.18259C17.4173 3.30092 15.6994 1.58301 12.8177 1.58301Z" fill="#566882"/>
<path d="M16.8631 9.68164H14.1082C13.3323 9.68164 12.6436 10.1091 12.2952 10.8058L11.6302 12.12C11.4719 12.4366 11.1552 12.6346 10.8069 12.6346H8.21023C7.96482 12.6346 7.61648 12.5791 7.3869 12.12L6.7219 10.8137C6.37357 10.125 5.6769 9.68956 4.90898 9.68956H2.13815C1.8294 9.68956 1.58398 9.93497 1.58398 10.2437V12.8246C1.58398 15.6983 3.30982 17.4162 6.19148 17.4162H12.8257C15.5411 17.4162 17.2115 15.9279 17.4173 13.2837V10.2358C17.4173 9.93497 17.1719 9.68164 16.8631 9.68164Z" fill="#566882"/>
<path d="M10.7271 6.17474H8.27292C7.96417 6.17474 7.71875 5.92932 7.71875 5.62057C7.71875 5.31182 7.96417 5.06641 8.27292 5.06641H10.7271C11.0358 5.06641 11.2813 5.31182 11.2813 5.62057C11.2813 5.92932 11.0279 6.17474 10.7271 6.17474Z" fill="#566882"/>
<path d="M11.3449 8.38369H7.65573C7.34698 8.38369 7.10156 8.13828 7.10156 7.82956C7.10156 7.52081 7.34698 7.27539 7.65573 7.27539H11.337C11.6458 7.27539 11.8912 7.52081 11.8912 7.82956C11.8912 8.13828 11.6458 8.38369 11.3449 8.38369Z" fill="#566882"/>
</svg>  