<svg width="19" height="19" viewBox="0 0 19 19" fill="none" xmlns="http://www.w3.org/2000/svg">
<path opacity="0.4" d="M1.58301 10.1964V8.80311C1.58301 7.97978 2.25592 7.29897 3.08717 7.29897C4.52009 7.29897 5.10592 6.28564 4.38551 5.04272C3.97384 4.33022 4.21926 3.40397 4.93967 2.99231L6.30926 2.20856C6.93467 1.83647 7.74217 2.05814 8.11426 2.68356L8.20134 2.83397C8.91384 4.07689 10.0855 4.07689 10.8059 2.83397L10.893 2.68356C11.2651 2.05814 12.0726 1.83647 12.698 2.20856L14.0676 2.99231C14.788 3.40397 15.0334 4.33022 14.6218 5.04272C13.9013 6.28564 14.4872 7.29897 15.9201 7.29897C16.7434 7.29897 17.4243 7.97186 17.4243 8.80311V10.1964C17.4243 11.0198 16.7513 11.7006 15.9201 11.7006C14.4872 11.7006 13.9013 12.7139 14.6218 13.9569C15.0334 14.6773 14.788 15.5956 14.0676 16.0073L12.698 16.791C12.0726 17.1631 11.2651 16.9414 10.893 16.316L10.8059 16.1656C10.0934 14.9227 8.92176 14.9227 8.20134 16.1656L8.11426 16.316C7.74217 16.9414 6.93467 17.1631 6.30926 16.791L4.93967 16.0073C4.21926 15.5956 3.97384 14.6694 4.38551 13.9569C5.10592 12.7139 4.52009 11.7006 3.08717 11.7006C2.25592 11.7006 1.58301 11.0198 1.58301 10.1964Z" fill="#566882"/>
<path d="M9.49967 12.0726C10.9206 12.0726 12.0726 10.9206 12.0726 9.49967C12.0726 8.07871 10.9206 6.92676 9.49967 6.92676C8.07871 6.92676 6.92676 8.07871 6.92676 9.49967C6.92676 10.9206 8.07871 12.0726 9.49967 12.0726Z" fill="#566882"/>
</svg>
