<svg width="19" height="19" viewBox="0 0 24 24" fill="none" xmlns="http://www.w3.org/2000/svg">
<path opacity="0.4" d="M15.48 3H7.52C4.07 3 2 5.06 2 8.52V16.47C2 19.94 4.07 22 7.52 22H15.47C18.93 22 20.99 19.94 20.99 16.48V8.52C21 5.06 18.93 3 15.48 3Z" fill="#566882"/>
<path d="M21.0214 2.98028C19.2314 1.18028 17.4814 1.14028 15.6414 2.98028L14.5114 4.10028C14.4114 4.20028 14.3814 4.34028 14.4214 4.47028C15.1214 6.92028 17.0814 8.88028 19.5314 9.58028C19.5614 9.59028 19.6114 9.59028 19.6414 9.59028C19.7414 9.59028 19.8414 9.55028 19.9114 9.48028L21.0214 8.36028C21.9314 7.45028 22.3814 6.58028 22.3814 5.69028C22.3814 4.79028 21.9314 3.90028 21.0214 2.98028Z" fill="#566882"/>
<path d="M17.8591 10.4199C17.5891 10.2899 17.3291 10.1599 17.0891 10.0099C16.8891 9.88984 16.6891 9.75984 16.4991 9.61984C16.3391 9.51984 16.1591 9.36984 15.9791 9.21984C15.9591 9.20984 15.8991 9.15984 15.8191 9.07984C15.5091 8.82984 15.1791 8.48984 14.8691 8.11984C14.8491 8.09984 14.7891 8.03984 14.7391 7.94984C14.6391 7.83984 14.4891 7.64984 14.3591 7.43984C14.2491 7.29984 14.1191 7.09984 13.9991 6.88984C13.8491 6.63984 13.7191 6.38984 13.5991 6.12984C13.4691 5.84984 13.3691 5.58984 13.2791 5.33984L7.89912 10.7199C7.54912 11.0699 7.20912 11.7299 7.13912 12.2199L6.70912 15.1999C6.61912 15.8299 6.78912 16.4199 7.17912 16.8099C7.50912 17.1399 7.95912 17.3099 8.45912 17.3099C8.56912 17.3099 8.67912 17.2999 8.78912 17.2899L11.7591 16.8699C12.2491 16.7999 12.9091 16.4699 13.2591 16.1099L18.6391 10.7299C18.3891 10.6499 18.1391 10.5399 17.8591 10.4199Z" fill="#566882"/>
</svg> 