<svg width="19" height="19" viewBox="0 0 24 24" fill="none" xmlns="http://www.w3.org/2000/svg">
<path opacity="0.4" d="M5.33109 19.4203C5.22109 19.4203 5.10108 19.3903 5.00108 19.3403L2.78108 18.2303C2.53108 18.1003 2.37109 17.8403 2.37109 17.5603V14.7803C2.37109 14.3703 2.71109 14.0303 3.12109 14.0303C3.53109 14.0303 3.87109 14.3703 3.87109 14.7803V17.0903L5.68108 17.9903C6.05108 18.1803 6.20108 18.6303 6.02108 19.0003C5.87108 19.2603 5.61109 19.4203 5.33109 19.4203Z" fill="#566882"/>
<path d="M11.9995 22.7497C11.9395 22.7497 11.8795 22.7397 11.8295 22.7297C11.7695 22.7197 11.7095 22.6897 11.6495 22.6597L9.43947 21.5597C9.06947 21.3697 8.91947 20.9197 9.09947 20.5497C9.28947 20.1797 9.73947 20.0297 10.1095 20.2097L11.2495 20.7797V19.2197C11.2495 18.8097 11.5895 18.4697 11.9995 18.4697C12.4095 18.4697 12.7495 18.8097 12.7495 19.2197V20.7797L13.8895 20.2097C14.2595 20.0297 14.7095 20.1797 14.8995 20.5497C15.0895 20.9197 14.9395 21.3697 14.5595 21.5597L12.3495 22.6597C12.2895 22.6897 12.2295 22.7097 12.1695 22.7297C12.1095 22.7397 12.0595 22.7497 11.9995 22.7497Z" fill="#566882"/>
<path opacity="0.4" d="M18.6702 19.42C18.4002 19.42 18.1302 19.27 18.0002 19.01C17.8102 18.64 17.9602 18.19 18.3402 18L20.1502 17.1001V14.79C20.1502 14.38 20.4902 14.04 20.9002 14.04C21.3102 14.04 21.6502 14.38 21.6502 14.79V17.5701C21.6502 17.8501 21.4902 18.1101 21.2402 18.2401L19.0202 19.3501C18.8902 19.3901 18.7802 19.42 18.6702 19.42Z" fill="#566882"/>
<path d="M11.9995 14.42C11.5895 14.42 11.2495 14.08 11.2495 13.67V11.36L9.43947 10.4601C9.06947 10.2701 8.91947 9.82004 9.09947 9.45004C9.28947 9.08004 9.73947 8.93005 10.1095 9.11005L11.9995 10.05L13.8895 9.11005C14.2595 8.93005 14.7095 9.07004 14.8995 9.45004C15.0895 9.82004 14.9395 10.2701 14.5595 10.4601L12.7495 11.36V13.67C12.7495 14.08 12.4095 14.42 11.9995 14.42Z" fill="#566882"/>
<path opacity="0.4" d="M3.10938 9.97037C2.69938 9.97037 2.35938 9.63037 2.35938 9.22037V6.46037V6.45036C2.35938 6.39036 2.36936 6.33036 2.37936 6.28036C2.39936 6.20036 2.42937 6.13036 2.46937 6.06036C2.49937 6.01036 2.52938 5.97036 2.56938 5.93036C2.60938 5.89036 2.65937 5.85037 2.70937 5.82037C2.72937 5.81037 2.75937 5.79036 2.77937 5.78036L4.98936 4.68036C5.35936 4.50036 5.80938 4.64037 5.99938 5.02037C6.18938 5.39037 6.03937 5.84036 5.65937 6.03036L4.77937 6.47037L5.65937 6.91037C6.02937 7.10037 6.17938 7.55036 5.99938 7.92036C5.81938 8.29036 5.35936 8.44036 4.98936 8.26036L3.84938 7.69037V9.25037C3.85938 9.64037 3.52937 9.97037 3.10938 9.97037Z" fill="#566882"/>
<path d="M14.2198 3.85979C14.1098 3.85979 13.9898 3.82979 13.8898 3.77979L11.9998 2.83979L10.1098 3.77979C9.73979 3.96979 9.28979 3.81979 9.09979 3.43979C8.90979 3.06979 9.0598 2.61978 9.4398 2.42978L11.6598 1.3198C11.8698 1.2098 12.1198 1.2098 12.3298 1.3198L14.5498 2.42978C14.9198 2.61978 15.0698 3.06979 14.8898 3.43979C14.7598 3.70979 14.4998 3.85979 14.2198 3.85979Z" fill="#566882"/>
<path opacity="0.4" d="M20.8904 9.97026C20.4804 9.97026 20.1404 9.63025 20.1404 9.22026V7.66026L19.0004 8.23025C18.6304 8.42025 18.1804 8.27025 17.9904 7.89025C17.8004 7.52025 17.9504 7.07026 18.3304 6.88026L19.2104 6.44026L18.3304 6.00025C17.9604 5.81025 17.8104 5.36026 17.9904 4.99026C18.1704 4.62026 18.6304 4.47025 19.0004 4.65025L21.2104 5.75025C21.2304 5.76025 21.2604 5.77025 21.2804 5.79025C21.3404 5.82025 21.3904 5.87025 21.4404 5.92025C21.4704 5.96025 21.5004 6.00025 21.5304 6.04025C21.5704 6.11025 21.6004 6.18025 21.6204 6.26025C21.6304 6.32025 21.6404 6.38025 21.6404 6.43025V6.44026V9.20025C21.6404 9.64025 21.3004 9.97026 20.8904 9.97026Z" fill="#566882"/>
</svg>  