<svg width="19" height="19" viewBox="0 0 19 19" fill="none" xmlns="http://www.w3.org/2000/svg">
<path opacity="0.4" d="M13.8778 6.15092C13.8224 6.14301 13.767 6.14301 13.7116 6.15092C12.4845 6.11134 11.5107 5.10592 11.5107 3.87092C11.5107 2.61217 12.532 1.58301 13.7987 1.58301C15.0574 1.58301 16.0866 2.60426 16.0866 3.87092C16.0787 5.10592 15.1049 6.11134 13.8778 6.15092Z" fill="#566882"/>
<path opacity="0.4" d="M16.4587 11.6378C15.572 12.2316 14.3291 12.4532 13.1812 12.3028C13.482 11.6536 13.6404 10.9332 13.6483 10.1732C13.6483 9.38156 13.4741 8.62948 13.1416 7.9724C14.3133 7.81408 15.5562 8.03573 16.4508 8.62948C17.7016 9.45281 17.7016 10.8066 16.4587 11.6378Z" fill="#566882"/>
<path opacity="0.4" d="M5.0984 6.15092C5.15382 6.14301 5.20923 6.14301 5.26465 6.15092C6.49173 6.11134 7.46548 5.10592 7.46548 3.87092C7.46548 2.61217 6.44423 1.58301 5.17757 1.58301C3.91882 1.58301 2.88965 2.60426 2.88965 3.87092C2.89757 5.10592 3.87132 6.11134 5.0984 6.15092Z" fill="#566882"/>
<path opacity="0.4" d="M5.18514 10.1734C5.18514 10.9413 5.35139 11.6696 5.65223 12.3267C4.53598 12.4455 3.37223 12.208 2.51723 11.6459C1.26639 10.8146 1.26639 9.46089 2.51723 8.62964C3.36431 8.05964 4.55973 7.83005 5.68389 7.95672C5.35931 8.62172 5.18514 9.3738 5.18514 10.1734Z" fill="#566882"/>
<path d="M9.5948 12.5637C9.53147 12.5558 9.46022 12.5558 9.38897 12.5637C7.93231 12.5162 6.76855 11.3208 6.76855 9.84833C6.76855 8.34417 7.97981 7.125 9.49189 7.125C10.9961 7.125 12.2152 8.34417 12.2152 9.84833C12.2152 11.3208 11.0594 12.5162 9.5948 12.5637Z" fill="#566882"/>
<path d="M7.02156 14.2023C5.82615 15.0019 5.82615 16.3161 7.02156 17.1078C8.38323 18.0182 10.6157 18.0182 11.9774 17.1078C13.1728 16.3082 13.1728 14.994 11.9774 14.2023C10.6236 13.2919 8.39115 13.2919 7.02156 14.2023Z" fill="#566882"/>
</svg>
